<?xml version="1.0" encoding="UTF-8"?>
<svg width="30px" height="27px" viewBox="0 0 30 27" version="1.1" xmlns="http://www.w3.org/2000/svg" xmlns:xlink="http://www.w3.org/1999/xlink">
    <!-- Generator: Sketch 43.2 (39069) - http://www.bohemiancoding.com/sketch -->
    <title>download</title>
    <desc>Created with Sketch.</desc>
    <defs></defs>
    <g id="Page-1" stroke="none" stroke-width="1" fill="none" fill-rule="evenodd">
        <g id="download" fill-rule="nonzero" fill="#FFFFFF">
            <path d="M26.624,17.955 L25.666,23.027 L4.334,23.027 L3.376,17.955 L0.991,17.955 L0.991,26.017 L29.009,26.017 L29.009,17.955 L26.624,17.955 L26.624,17.955 Z M26.02,8.946 L18.998,8.946 L18.998,6.016 L11.004,6.016 L11.004,8.946 L4.049,8.946 L14.963,20.358 L26.02,8.946 L26.02,8.946 Z M18.997,0.982 L11.003,0.982 L11.003,2.048 L18.997,2.048 L18.997,0.982 Z M18.997,2.973 L11.003,2.973 L11.003,5.011 L18.997,5.011 L18.997,2.973 L18.997,2.973 Z" id="Shape"></path>
        </g>
    </g>
</svg>